<?xml version="1.0" standalone="no"?>
<!DOCTYPE svg PUBLIC "-//W3C//DTD SVG 20010904//EN"
 "http://www.w3.org/TR/2001/REC-SVG-20010904/DTD/svg10.dtd">
<svg version="1.0" xmlns="http://www.w3.org/2000/svg"
 width="500.000000pt" height="500.000000pt" viewBox="0 0 500.000000 500.000000"
 preserveAspectRatio="xMidYMid meet">
<metadata>
Created by potrace 1.16, written by Peter Selinger 2001-2019
</metadata>
<g transform="translate(0.000000,500.000000) scale(0.100000,-0.100000)"
fill="#000000" stroke="none">
<path d="M1356 2969 c4 -7 0 -9 -14 -5 -17 6 -35 -7 -90 -66 -111 -116 -157
-171 -154 -180 1 -5 -2 -7 -6 -4 -5 3 -34 -20 -64 -52 -87 -91 -85 -90 -113
-58 -13 15 -28 25 -34 22 -5 -4 -13 -1 -17 5 -4 8 -3 9 4 5 7 -4 12 -4 12 -1
0 11 -28 36 -37 33 -4 -2 -19 5 -33 15 -13 9 -19 17 -13 17 6 0 16 -7 23 -15
7 -9 15 -13 18 -10 9 9 -31 34 -54 35 -26 0 -54 -30 -54 -57 0 -13 36 -59 92
-117 118 -124 129 -125 216 -27 34 38 58 72 54 76 -4 5 -2 5 4 2 7 -4 62 46
130 119 176 187 174 184 174 218 0 24 -3 27 -10 16 -9 -13 -10 -13 -11 0 -1 8
-1 18 -1 22 1 3 -5 9 -14 12 -9 4 -12 2 -8 -5z"/>
<path d="M3202 2528 l3 -213 53 -3 52 -3 0 215 0 216 -55 0 -55 0 2 -212z m98
-3 l0 -205 -45 0 -45 0 0 205 0 205 45 0 45 0 0 -205z"/>
<path d="M1469 2058 c-20 -8 -27 -52 -10 -63 11 -6 3162 -7 3169 0 6 6 6 55
-1 61 -6 7 -2767 5 -2778 -2 -5 -3 -9 -2 -9 3 0 10 -344 11 -371 1z"/>
</g>
</svg>
